<svg width="89" height="26" viewBox="0 0 89 26" fill="none" xmlns="http://www.w3.org/2000/svg">
<path fill-rule="evenodd" clip-rule="evenodd" d="M15.0204 13.0334C15.0204 10.8486 13.4863 9.35332 11.4459 9.35332C9.4058 9.35332 7.87161 10.8486 7.87161 13.0334C7.87161 15.2183 9.4058 16.7133 11.4459 16.7133C13.4863 16.7133 15.0204 15.2183 15.0204 13.0334Z" fill="white"/>
<path fill-rule="evenodd" clip-rule="evenodd" d="M3.29756 26C1.4839 26 0 24.5064 0 22.6808V3.31915C0 1.49362 1.4839 0 3.29756 0H30.5024C32.3161 0 33.8 1.49362 33.8 3.31915V22.6808C33.8 24.5064 32.3161 26 30.5024 26H3.29756ZM5.19508 13.0175C5.19508 9.60041 7.83918 7.07066 11.4459 7.07066C15.0367 7.07066 17.697 9.58409 17.697 13.0175C17.697 16.4509 15.0367 18.9643 11.4459 18.9643C7.83918 18.9643 5.19508 16.4345 5.19508 13.0175ZM11.4459 9.35332C13.4863 9.35332 15.0204 10.8486 15.0204 13.0334C15.0204 15.2183 13.4863 16.7133 11.4459 16.7133C9.4058 16.7133 7.87161 15.2183 7.87161 13.0334C7.87161 10.8486 9.4058 9.35332 11.4459 9.35332ZM19.2999 16.4749L19.0715 16.985C18.8938 17.3824 19.054 17.8493 19.4368 18.0523C20.4837 18.6077 21.9632 18.9643 23.4323 18.9643C26.6966 18.9643 28.2797 17.3216 28.2797 15.3998C28.2797 12.9284 26.0038 12.4045 24.1164 11.97C22.7792 11.6622 21.6371 11.3993 21.6371 10.5206C21.6371 9.79762 22.2411 9.20626 23.8077 9.20626C24.5848 9.20626 25.41 9.38079 26.2317 9.73677C26.6493 9.91794 27.1335 9.71492 27.305 9.29062L27.5122 8.77698C27.6763 8.37011 27.4979 7.89851 27.0995 7.72066C26.136 7.29 24.9698 7.07066 23.8242 7.07066C20.5763 7.07066 19.0094 8.69677 19.0094 10.652C19.0094 13.1499 21.2816 13.6812 23.1682 14.1223C24.5073 14.4354 25.6521 14.6702 25.6521 15.5964C25.6521 16.3032 25.0157 16.829 23.4488 16.829C22.3911 16.829 21.2949 16.5355 20.4068 16.0772C19.9946 15.8645 19.4901 16.0503 19.2999 16.4749Z" fill="white"/>
<path fill-rule="evenodd" clip-rule="evenodd" d="M41.1176 18.9594C40.216 18.9594 39.3876 18.7869 38.6319 18.4421V16.613H39.7656V17.7122C40.2018 17.839 40.6814 17.9023 41.2047 17.9023C41.8585 17.9023 42.3197 17.7941 42.589 17.5777C42.858 17.3608 42.9925 17.0565 42.9925 16.6648C42.9925 16.3014 42.8322 16.011 42.5129 15.7943C42.1928 15.5776 41.6916 15.35 41.0083 15.1121C40.0491 14.774 39.395 14.4113 39.0462 14.0234C38.6975 13.6362 38.5229 13.1814 38.5229 12.66C38.5229 11.9697 38.8064 11.4024 39.3732 10.9583C39.9399 10.5148 40.6667 10.2927 41.5535 10.2927C42.3673 10.2927 43.1375 10.4617 43.8648 10.7998V12.6177H42.7309V11.4976C42.3963 11.3707 41.982 11.3074 41.4879 11.3074C40.9357 11.3074 40.5211 11.4162 40.2455 11.6336C39.9691 11.851 39.8312 12.1356 39.8312 12.4863C39.8312 12.8374 39.9799 13.1151 40.2781 13.3182C40.5756 13.5219 41.0446 13.7358 41.6843 13.9606C42.6 14.2712 43.2649 14.6175 43.679 14.9985C44.0933 15.3801 44.3007 15.8882 44.3007 16.5237C44.3007 17.2582 44.0096 17.8477 43.4284 18.2923C42.8469 18.7371 42.0767 18.9594 41.1176 18.9594Z" fill="white"/>
<path fill-rule="evenodd" clip-rule="evenodd" d="M52.8196 11.469L49.9527 20.0567C49.7754 20.6058 49.5862 21.1077 49.3861 21.5628C49.1865 22.0179 48.9566 22.4133 48.6974 22.751C48.438 23.0879 48.1308 23.3427 47.7753 23.5157C47.4196 23.6884 46.9976 23.7742 46.5087 23.7742C46.2418 23.7742 45.9751 23.7509 45.7084 23.7038V22.4099C45.9901 22.457 46.2643 22.4803 46.531 22.4803C46.7676 22.4803 46.9866 22.4528 47.1864 22.3982C47.3863 22.3428 47.5754 22.2337 47.753 22.0684C47.9309 21.904 48.116 21.6296 48.3087 21.2452C48.5008 20.8609 48.7159 20.3078 48.9531 19.5866H48.842L46.2643 11.469H45.2642V10.2927H48.5976V11.469H47.6197L49.553 17.7749H49.5975L51.6193 11.469H50.5977V10.2927H53.9309V11.469H52.8196Z" fill="white"/>
<path fill-rule="evenodd" clip-rule="evenodd" d="M57.8011 18.9594C56.8996 18.9594 56.0712 18.7869 55.3155 18.4421V16.613H56.4492V17.7122C56.8854 17.839 57.365 17.9023 57.8883 17.9023C58.5421 17.9023 59.0033 17.7941 59.2726 17.5777C59.5416 17.3608 59.6761 17.0565 59.6761 16.6648C59.6761 16.3014 59.5158 16.011 59.1965 15.7943C58.8764 15.5776 58.3752 15.35 57.6919 15.1121C56.7327 14.774 56.0786 14.4113 55.7298 14.0234C55.3811 13.6362 55.2065 13.1814 55.2065 12.66C55.2065 11.9697 55.49 11.4024 56.0568 10.9583C56.6235 10.5148 57.3502 10.2927 58.237 10.2927C59.0509 10.2927 59.8211 10.4617 60.5484 10.7998V12.6177H59.4144V11.4976C59.0799 11.3707 58.6656 11.3074 58.1715 11.3074C57.6193 11.3074 57.2047 11.4162 56.9291 11.6336C56.6527 11.851 56.5148 12.1356 56.5148 12.4863C56.5148 12.8374 56.6635 13.1151 56.9617 13.3182C57.2592 13.5219 57.7282 13.7358 58.3676 13.9606C59.2836 14.2712 59.9485 14.6175 60.3626 14.9985C60.7769 15.3801 60.9843 15.8882 60.9843 16.5237C60.9843 17.2582 60.6932 17.8477 60.112 18.2923C59.5305 18.7371 58.7603 18.9594 57.8011 18.9594Z" fill="white"/>
<path fill-rule="evenodd" clip-rule="evenodd" d="M65.3905 18.9599C64.7003 18.9599 64.1542 18.7869 63.7534 18.4408C63.3521 18.0952 63.1518 17.5842 63.1518 16.907V10.8871H61.9478V9.73395H63.1518V7.65798L64.5962 7.4043V9.73395H66.7626V10.8871H64.5962V16.6764C64.5962 17.1225 64.6881 17.4224 64.8729 17.5759C65.0572 17.7299 65.3019 17.8064 65.607 17.8064C65.9921 17.8064 66.3775 17.7143 66.7626 17.5296V18.6602C66.329 18.8599 65.8718 18.9599 65.3905 18.9599Z" fill="white"/>
<path fill-rule="evenodd" clip-rule="evenodd" d="M74.2379 18.3043V17.1627C73.4457 17.6277 72.5775 17.8599 71.6329 17.8599C70.7797 17.8321 70.159 17.5432 69.7709 16.9935C69.3822 16.444 69.1725 15.6759 69.1424 14.6895H74.4664V14.0341C74.4664 12.8364 74.1924 11.9136 73.6437 11.2653C73.0953 10.6168 72.3789 10.2927 71.4958 10.2927C70.4142 10.2927 69.5154 10.6835 68.7998 11.4659C68.0837 12.2479 67.7256 13.3297 67.7256 14.7107C67.7256 16.0497 68.0646 17.0925 68.7424 17.839C69.4202 18.586 70.3609 18.9594 71.5645 18.9594C72.5847 18.9594 73.476 18.7412 74.2379 18.3043ZM72.6158 11.9083C72.9352 12.2819 73.0952 12.8702 73.0952 13.6733H69.1652C69.2411 12.8985 69.4698 12.3174 69.8505 11.9295C70.2312 11.542 70.7035 11.3483 71.2671 11.3483C71.8461 11.3483 72.2958 11.5349 72.6158 11.9083Z" fill="white"/>
<path fill-rule="evenodd" clip-rule="evenodd" d="M75.4292 17.8759H76.5719V11.5923H75.4292V10.5093H77.8511L77.9198 11.636H77.9424C78.7498 10.7406 79.6715 10.2927 80.7074 10.2927C81.8043 10.2927 82.4669 10.7474 82.6956 11.6577H82.7411C83.5638 10.7474 84.5081 10.2927 85.5743 10.2927C86.336 10.2927 86.8919 10.4983 87.2425 10.9098C87.5928 11.3218 87.768 11.9036 87.768 12.6543V17.8759H88.9107V18.9594H85.483V17.8759H86.3972V12.8275C86.3972 12.2499 86.2902 11.8636 86.0772 11.6687C85.8637 11.4733 85.5666 11.376 85.1862 11.376C84.3635 11.376 83.5864 11.7804 82.8553 12.5892V17.8759H83.7693V18.9594H80.5703V17.8759H81.4843V12.8275C81.4843 12.2499 81.3814 11.8636 81.1761 11.6687C80.9703 11.4733 80.6845 11.376 80.3193 11.376C79.4508 11.376 78.6585 11.8238 77.9424 12.7192V17.8759H78.8566V18.9594H75.4292V17.8759Z" fill="white"/>
</svg>
